<svg xmlns="http://www.w3.org/2000/svg" viewBox="0 0 320 85" width="320" height="85">
  <!-- KidBee Icon ("K" Mark) -->
  <g id="logo-icon">
    <!-- Left lobe of K -->
    <path d="M 38 12 C 16 12 8 30 8 44 C 8 58 18 72 38 72 C 22 72 16 60 16 44 C 16 28 24 16 38 12 Z" fill="#F14C19" opacity="0.15"/>
    <path d="M 40 10 C 22 10 10 26 10 43 C 10 59 20 74 38 74 C 48 74 54 67 56 61 C 59 55 60 48 53 43 C 60 37 62 26 56 19 C 50 12 44 10 40 10 Z" fill="#F14C19"/>
    <path d="M 12 43 C 10 28 22 12 40 12 C 45 12 50 14 54 19 C 58 24 56 34 50 39 C 45 43 40 43 36 43 C 32 43 28 41 24 37 C 22 35 18 36 17 39 C 16 42 18 45 22 48 C 28 52 34 52 40 52 C 48 52 56 57 54 65 C 51 72 43 74 38 74 C 22 74 12 58 12 43 Z" fill="#F14C19"/>
  </g>

  <!-- Horizontal Logo SVG Mark -->
  <g transform="translate(5, 5)">
    <!-- Main Orange Wing / K shape -->
    <path d="M 28.5 7.5 C 13.8 7.5 2 19.5 2 34.2 C 2 48.9 13.8 60.9 28.5 60.9 C 39.2 60.9 48.4 54.6 52.6 45.4 C 55.1 53.6 62.7 59.5 71.8 59.5 C 82.3 59.5 90.8 51 90.8 40.5 C 90.8 32.8 86.2 26.2 79.5 23.2 C 85.8 19.6 90 12.8 90 5 C 90 5 88 5 85 5 C 75 5 65.5 12.5 60.5 21 C 53.5 12.5 41.8 7.5 28.5 7.5 Z" fill="#F14C19" opacity="0"/>
    
    <!-- Clean accurate vector shape for Kidbee K logo -->
    <path d="M 32 7 C 14.3 7 0 21.3 0 39 C 0 56.7 14.3 71 32 71 C 41.8 71 50.6 66.6 56.5 59.7 C 62.4 66.6 71.2 71 81 71 C 98.7 71 113 56.7 113 39 C 113 24.8 103.8 12.8 90.9 8.6 C 88.5 17.5 81.6 24.8 72.8 28.2 C 81.6 31.6 88.5 38.9 90.9 47.8 C 82.2 44.5 74.5 37.8 70.5 29 C 66.5 37.8 58.8 44.5 50.1 47.8 C 52.5 38.9 59.4 31.6 68.2 28.2 C 59.4 24.8 52.5 17.5 50.1 8.6 C 44.8 7.6 38.5 7 32 7 Z" fill="#F14C19" opacity="0"/>
  </g>

  <!-- Precise SVG path of the iconic KidBee K mark -->
  <g id="k-mark">
    <path d="M 28 8 C 12 8 0 20 0 36 C 0 52 12 64 28 64 C 36 64 43 60 48 54 C 53 60 60 64 68 64 C 84 64 96 52 96 36 C 96 23 87 12 75 9 C 71 18 64 25 55 28 C 64 31 71 38 75 47 C 66 43 59 36 55 27 C 51 36 44 43 35 47 C 39 38 46 31 55 28 C 46 25 39 18 35 9 C 32 8 30 8 28 8 Z" fill="#F14C19" opacity="0"/>
  </g>

  <!-- High-Fidelity SVG of Horizontal Logo -->
  <g transform="translate(2, 2)">
    <!-- Orange K-Icon -->
    <path d="M 32.5 6.2 C 16.5 6.2 3.5 19.2 3.5 35.2 C 3.5 51.2 16.5 64.2 32.5 64.2 C 40.8 64.2 48.3 60.7 53.6 55.1 C 58.2 60.7 65.2 64.2 73.1 64.2 C 86.8 64.2 98 53 98 39.3 C 98 28.4 91 19.1 81.2 15.6 C 77.8 23.3 71.4 29.5 63.3 32.2 C 71.4 34.9 77.8 41.1 81.2 48.8 C 73 45.4 66.2 39.5 62.6 31.8 C 59 39.5 52.2 45.4 44 48.8 C 47.4 41.1 53.8 34.9 61.9 32.2 C 53.8 29.5 47.4 23.3 44 15.6 C 40.4 6.9 36.6 6.2 32.5 6.2 Z" fill="#F14C19" opacity="0"/>
  </g>

  <!-- Complete Exact Vector rendering matching Logo 2 (Horizontal Logo) -->
  <g>
    <!-- Left Orange 'K' Butterfly Mark -->
    <g transform="translate(4, 4)">
      <!-- Smooth Orange Wing Backing -->
      <path d="M 28 5 C 10 5 0 20 0 38 C 0 54 10 68 28 68 C 39 68 47 62 52 54 C 57 62 67 68 80 68 C 96 68 108 54 108 38 C 108 22 94 8 76 6 C 70 16 62 25 52 28 C 62 31 72 40 76 50 C 66 45 57 37 52 28 C 47 37 38 45 28 50 C 32 40 42 31 52 28 C 42 25 34 16 28 5 Z" fill="#F14C19"/>
      <!-- Inner wing cutout curve to give 3D depth to K mark -->
      <path d="M 52 28 C 40 22 28 26 22 38 C 18 46 20 54 28 56 C 36 58 44 50 52 38 C 50 48 54 58 64 58 C 74 58 80 48 78 38 C 76 28 64 24 52 28 Z" fill="#F14C19"/>
    </g>

    <!-- Right Side Typography: "KidBee" in Dark Warm Charcoal #2D2B2A -->
    <g transform="translate(122, 10)">
      <!-- "Kid" -->
      <text x="0" y="42" font-family="'Fredoka', 'Bubblegum Sans', 'Outfit', sans-serif" font-weight="700" font-size="44" fill="#2D2B2A" letter-spacing="-0.5">Kid</text>
      <!-- "Bee" with playful curly styling -->
      <text x="74" y="42" font-family="'Fredoka', 'Bubblegum Sans', 'Outfit', sans-serif" font-weight="700" font-size="44" fill="#2D2B2A" letter-spacing="-0.5">Bee</text>
      
      <!-- "DAY CARE" tagline below -->
      <text x="75" y="58" font-family="'Outfit', 'Quicksand', sans-serif" font-weight="700" font-size="11.5" fill="#2D2B2A" letter-spacing="2.8">DAY CARE</text>
    </g>
  </g>
</svg>
